<?xml version="1.0" standalone="no"?><!DOCTYPE svg PUBLIC "-//W3C//DTD SVG 1.1//EN" "http://www.w3.org/Graphics/SVG/1.1/DTD/svg11.dtd"><svg t="1672918318805" class="icon" viewBox="0 0 1024 1024" version="1.1" xmlns="http://www.w3.org/2000/svg" p-id="3320" xmlns:xlink="http://www.w3.org/1999/xlink" width="200" height="200"><path d="M810.21952 957.44H457.77408a152.7552 152.7552 0 0 1-152.34048-152.82176V451.072a152.7552 152.7552 0 0 1 152.34048-152.82176h352.44544A152.75008 152.75008 0 0 1 962.56 451.072v353.55136A152.7552 152.7552 0 0 1 810.21952 957.44zM457.77408 367.68768A83.34336 83.34336 0 0 0 374.656 451.072v353.55136a83.34848 83.34848 0 0 0 83.11808 83.38432h352.44544a83.34848 83.34848 0 0 0 83.1232-83.38432V451.072a83.34848 83.34848 0 0 0-83.1232-83.3792H457.77408zM229.3248 730.86976h-25.41056A147.9936 147.9936 0 0 1 56.32 582.8096V219.74016A147.9936 147.9936 0 0 1 203.91424 71.68h361.93792a147.968 147.968 0 0 1 147.59424 148.06016 34.6112 34.6112 0 1 1-69.21728 0 78.58688 78.58688 0 0 0-78.37696-78.62272H203.91424A78.58688 78.58688 0 0 0 125.5424 219.74016v363.06944a78.58688 78.58688 0 0 0 78.37184 78.62272h25.41056a34.71872 34.71872 0 0 1 0 69.43744z" fill="#595BB3" p-id="3321"></path></svg>