<?xml version="1.0" standalone="no"?><!DOCTYPE svg PUBLIC "-//W3C//DTD SVG 1.1//EN" "http://www.w3.org/Graphics/SVG/1.1/DTD/svg11.dtd"><svg t="1673311590132" class="icon" viewBox="0 0 1024 1024" version="1.1" xmlns="http://www.w3.org/2000/svg" p-id="251374" xmlns:xlink="http://www.w3.org/1999/xlink" width="200" height="200"><path d="M957.44 711.68L547.413333 512l409.6-199.68a42.666667 42.666667 0 0 0 19.626667-57.173333 42.666667 42.666667 0 0 0-57.173333-19.626667l-469.76 228.693333-139.946667-68.266666c19.626667-12.8 36.266667-29.866667 48.64-50.346667 23.893333-38.826667 31.146667-84.48 20.906667-128.853333A168.021333 168.021333 0 0 0 302.933333 110.933333a170.496 170.496 0 0 0-234.666666 55.466667c-23.893333 38.826667-31.573333 84.48-20.906667 128.853333S84.906667 377.173333 123.733333 401.066667c11.093333 6.826667 23.04 11.946667 34.986667 16.213333L352.853333 512l-194.56 94.72a169.216 169.216 0 0 0-110.933333 119.893333c-11.093333 44.373333-4.266667 90.026667 19.2 129.28 23.466667 39.253333 60.586667 66.986667 104.96 78.08 14.08 2.986667 28.16 4.693333 42.24 4.693334 30.293333 0 60.586667-8.106667 87.466667-24.32 39.253333-23.466667 66.986667-60.586667 78.08-104.96s4.266667-90.026667-19.2-129.28c-12.8-21.333333-29.866667-38.826667-49.92-52.48l140.373333-68.266667 469.76 228.693333a42.88 42.88 0 0 0 57.173333-19.626666c9.813333-20.906667 0.853333-46.506667-20.053333-56.746667zM140.8 211.2C157.013333 185.173333 184.746667 170.666667 213.333333 170.666667c15.36 0 30.72 4.266667 44.8 12.8 19.2 11.946667 32.853333 30.72 38.4 52.906666a85.333333 85.333333 0 0 1-10.666666 64.426667c-11.946667 19.2-30.72 32.853333-52.906667 38.4a85.333333 85.333333 0 0 1-64.426667-10.666667c-19.2-11.946667-32.853333-30.72-38.4-52.906666a85.333333 85.333333 0 0 1 10.666667-64.426667z m155.306667 577.706667a84.864 84.864 0 0 1-103.253334 61.866666c-22.186667-5.546667-40.533333-19.2-52.48-38.826666a85.376 85.376 0 0 1 29.44-116.906667 82.986667 82.986667 0 0 1 64.426667-9.813333 84.864 84.864 0 0 1 61.866667 103.68z" p-id="251375" fill="#595bb3"></path></svg>