<?xml version="1.0" standalone="no"?><!DOCTYPE svg PUBLIC "-//W3C//DTD SVG 1.1//EN" "http://www.w3.org/Graphics/SVG/1.1/DTD/svg11.dtd"><svg t="1672941148320" class="icon" viewBox="0 0 1024 1024" version="1.1" xmlns="http://www.w3.org/2000/svg" p-id="2555" xmlns:xlink="http://www.w3.org/1999/xlink" width="200" height="200"><path d="M957.44 412.80512c0-85.59104-70.82496-155.27936-158.15168-155.98592V157.55776A76.288 76.288 0 0 0 722.57024 81.92h-411.136A76.288 76.288 0 0 0 234.7008 157.55776v99.23072h-3.53792C143.22176 256.78848 71.68 326.77888 71.68 412.80512v307.1488h155.71968v146.48832A75.60192 75.60192 0 0 0 302.80192 942.08h418.65216a75.60192 75.60192 0 0 0 75.40224-75.63776v-146.48832H957.44v-307.1488zM305.37216 157.55776a5.56544 5.56544 0 0 1 6.04672-4.74112h411.136a5.56544 5.56544 0 0 1 6.04672 4.74112v99.23072H305.37216V157.55776z m420.8128 708.88448a4.74112 4.74112 0 0 1-4.73088 4.74624H302.80192a4.74112 4.74112 0 0 1-4.72576-4.74624v-217.38496h428.11392v217.38496z m160.59904-217.38496h-89.92768v-70.89152H227.39968v70.89152H142.336V412.80512C142.336 365.87008 182.19008 327.68 231.16288 327.68h566.784c48.9728 0 88.81152 38.19008 88.81152 85.12512v236.25216zM508.47744 389.12H265.16992a35.44576 35.44576 0 0 0 0 70.89152h243.30752a35.44576 35.44576 0 0 0 0-70.89152z" fill="#595BB3" p-id="2556"></path></svg>