<?xml version="1.0" standalone="no"?><!DOCTYPE svg PUBLIC "-//W3C//DTD SVG 1.1//EN" "http://www.w3.org/Graphics/SVG/1.1/DTD/svg11.dtd"><svg t="1672918241156" class="icon" viewBox="0 0 1024 1024" version="1.1" xmlns="http://www.w3.org/2000/svg" p-id="2724" xmlns:xlink="http://www.w3.org/1999/xlink" width="200" height="200"><path d="M490.33728 670.11072a205.63968 205.63968 0 0 1-199.99232-155.88864 34.75456 34.75456 0 0 0-67.44576 16.78848 275.02592 275.02592 0 0 0 267.43808 208.53248 34.71872 34.71872 0 1 0 0-69.43232z m441.78432 243.65568l-155.86304-158.5664a408.73472 408.73472 0 1 0-53.76 44.416l160.01024 162.816a34.73408 34.73408 0 0 0 49.6128-48.6656zM151.43424 464.256a338.90304 338.90304 0 1 1 338.90304 338.50368 339.09248 339.09248 0 0 1-338.90304-338.50368z" fill="#595BB3" p-id="2725"></path></svg>