<?xml version="1.0" standalone="no"?><!DOCTYPE svg PUBLIC "-//W3C//DTD SVG 1.1//EN" "http://www.w3.org/Graphics/SVG/1.1/DTD/svg11.dtd"><svg t="1672940837568" class="icon" viewBox="0 0 1024 1024" version="1.1" xmlns="http://www.w3.org/2000/svg" p-id="2108" xmlns:xlink="http://www.w3.org/1999/xlink" width="200" height="200"><path d="M836.78208 202.17856l-261.21728-142.1056a114.49344 114.49344 0 0 0-107.8784-0.90112L194.048 202.17344A112.78336 112.78336 0 0 0 133.12 302.33088l6.97856 322.08896c0.13312 62.68928 32.05632 125.50144 94.88896 186.69568C331.136 904.7552 486.4 977.92 518.34368 977.92h0.384c32.4096-0.61952 369.87904-139.87328 370.29376-353.18272l6.96832-322.56v-0.7424a113.03424 113.03424 0 0 0-59.20768-99.25632zM819.2512 623.616v0.7424c0 152.35584-256.32768 267.99104-301.44512 283.27936-51.712-16.896-307.92704-144.4608-307.92704-283.59168l-6.98368-322.03264a43.75552 43.75552 0 0 1 23.6288-38.53824l273.65376-142.99648a44.43136 44.43136 0 0 1 41.856 0.34304l261.21728 142.1056a43.87328 43.87328 0 0 1 22.97344 38.1952z m-156.99968-182.784h-112.80384V340.34688a34.88768 34.88768 0 0 0-69.77536 0v100.44928H366.86848a34.6368 34.6368 0 1 0 0 69.2736h112.80384v100.44928a34.88768 34.88768 0 0 0 69.77536 0V510.06976h112.80384a34.6368 34.6368 0 1 0 0-69.2736z" fill="#595BB3" p-id="2109"></path></svg>