<?xml version="1.0" standalone="no"?><!DOCTYPE svg PUBLIC "-//W3C//DTD SVG 1.1//EN" "http://www.w3.org/Graphics/SVG/1.1/DTD/svg11.dtd"><svg t="1672918232971" class="icon" viewBox="0 0 1024 1024" version="1.1" xmlns="http://www.w3.org/2000/svg" p-id="2575" xmlns:xlink="http://www.w3.org/1999/xlink" width="200" height="200"><path d="M512 71.68a440.32 440.32 0 1 0 440.32 440.32 440.832 440.832 0 0 0-440.32-440.32z m0 809.62048A369.30048 369.30048 0 1 1 881.30048 512 369.72032 369.72032 0 0 1 512 881.30048z m0-280.5248a35.51744 35.51744 0 0 0 35.51232-35.51232V298.94144a35.51232 35.51232 0 0 0-71.01952 0V565.248a35.51232 35.51232 0 0 0 35.5072 35.52768z m1.77664 56.832a41.42592 41.42592 0 1 0 41.42592 41.42592 41.42592 41.42592 0 0 0-41.42592-41.44128z" fill="#595BB3" p-id="2576"></path></svg>