<?xml version="1.0" standalone="no"?><!DOCTYPE svg PUBLIC "-//W3C//DTD SVG 1.1//EN" "http://www.w3.org/Graphics/SVG/1.1/DTD/svg11.dtd"><svg t="1672918195471" class="icon" viewBox="0 0 1024 1024" version="1.1" xmlns="http://www.w3.org/2000/svg" p-id="2426" xmlns:xlink="http://www.w3.org/1999/xlink" width="200" height="200"><path d="M890.83904 196.80256h-269.85984a2.23744 2.23744 0 0 1-1.024-0.24064l-160.48128-80.384A82.176 82.176 0 0 0 422.81984 107.52H133.16096A82.11968 82.11968 0 0 0 51.2 189.60896v644.78208A82.11968 82.11968 0 0 0 133.16096 916.48h757.67808A82.11968 82.11968 0 0 0 972.8 834.39104V278.89152a82.11968 82.11968 0 0 0-81.96096-82.08896z m-757.67808-9.472h289.65888a2.24768 2.24768 0 0 1 1.024 0.24064l160.49664 80.384a82.304 82.304 0 0 0 36.65408 8.66816h269.85984a2.2784 2.2784 0 0 1 2.27328 2.27328v91.51488H130.88768V189.60896a2.2784 2.2784 0 0 1 2.27328-2.2784z m757.67808 649.33888H133.16096a2.2784 2.2784 0 0 1-2.27328-2.2784V450.22208h762.22464v384.16896a2.2784 2.2784 0 0 1-2.27328 2.2784z" fill="#595BB3" p-id="2427"></path></svg>