<?xml version="1.0" standalone="no"?><!DOCTYPE svg PUBLIC "-//W3C//DTD SVG 1.1//EN" "http://www.w3.org/Graphics/SVG/1.1/DTD/svg11.dtd"><svg t="1672941281556" class="icon" viewBox="0 0 1024 1024" version="1.1" xmlns="http://www.w3.org/2000/svg" p-id="2853" xmlns:xlink="http://www.w3.org/1999/xlink" width="200" height="200"><path d="M512 71.68a440.32 440.32 0 1 0 440.32 440.32 440.832 440.832 0 0 0-440.32-440.32z m0 809.62048A369.30048 369.30048 0 1 1 881.30048 512 369.72032 369.72032 0 0 1 512 881.30048zM670.208 353.792a35.5072 35.5072 0 0 0-50.21184 0L512 461.78304 404.02944 353.792a35.5072 35.5072 0 1 0-50.23744 50.23744L461.78816 512 353.792 619.97056a35.5072 35.5072 0 0 0 50.21184 50.21696L512 562.21696l107.9808 107.99104a35.5072 35.5072 0 0 0 50.21184-50.21696L562.22208 512 670.208 404.02944a35.5072 35.5072 0 0 0 0-50.23744z" fill="#595BB3" p-id="2854"></path></svg>